<svg width="109" height="106" viewBox="0 0 109 106" fill="none" xmlns="http://www.w3.org/2000/svg">
    <path d="M54.4878 23.1875C52.3472 23.1875 50.5958 21.6969 50.5958 19.875V16.5625C50.5958 7.41172 59.3042 0 70.0558 0H73.9478C76.0884 0 77.8398 1.49062 77.8398 3.3125V6.625C77.8398 15.7758 69.1314 23.1875 58.3798 23.1875H54.4878ZM0 59.625C0 43.8285 8.684 26.5 27.2439 26.5C33.8846 26.5 41.7659 28.6324 47.3606 30.4957C51.9337 32.007 57.0663 32.007 61.6394 30.4957C67.2098 28.6531 75.1154 26.5 81.7561 26.5C100.316 26.5 109 43.8285 109 59.625C109 86.125 89.5401 106 70.0801 106C66.0665 106 60.8123 104.634 57.5528 103.661C55.5825 103.081 53.4419 103.081 51.4715 103.661C48.212 104.634 42.9578 106 38.9442 106C19.4599 106 0 86.125 0 59.625Z" fill="#FFA883"/>
</svg>
