<svg width="106" height="99" viewBox="0 0 106 99" fill="none" xmlns="http://www.w3.org/2000/svg">
    <path d="M1.18969 1.40449C2.77594 -0.448242 5.34094 -0.448242 6.92719 1.40449L17.5584 13.9553V6.38496C17.5584 3.73535 19.3641 1.60371 21.6084 1.60371C23.8528 1.60371 25.6584 3.73535 25.6584 6.38496V25.51C25.6584 28.1596 23.8528 30.2912 21.6084 30.2912H5.40844C3.16406 30.2912 1.35844 28.1596 1.35844 25.51C1.35844 22.8604 3.16406 20.7287 5.40844 20.7287H11.8378L1.18969 8.17793C-0.379688 6.30527 -0.379688 3.27715 1.18969 1.40449ZM21.1866 47.0057C25.4222 36.985 36.2391 20.7287 52.6584 20.7287C69.0778 20.7287 79.8947 36.985 84.1303 47.0057C84.7716 48.5197 84.7716 50.2928 84.1303 51.8268C79.8947 61.8475 69.0778 78.1037 52.6584 78.1037C36.2391 78.1037 25.4222 61.8475 21.1866 51.8268C20.5453 50.3127 20.5453 48.5396 21.1866 47.0057ZM52.6584 62.1662C58.6153 62.1662 63.4584 56.4486 63.4584 49.4162C63.4584 42.3838 58.6153 36.6662 52.6584 36.6662C46.7016 36.6662 41.8584 42.3838 41.8584 49.4162C41.8584 56.4486 46.7016 62.1662 52.6584 62.1662ZM98.3897 1.40449C99.9759 -0.468164 102.541 -0.468164 104.11 1.40449C105.68 3.27715 105.697 6.30527 104.11 8.15801L93.4791 20.7088H99.9084C102.153 20.7088 103.958 22.8404 103.958 25.49C103.958 28.1397 102.153 30.2713 99.9084 30.2713H83.7084C81.4641 30.2713 79.6584 28.1397 79.6584 25.49V6.38496C79.6584 3.73535 81.4641 1.60371 83.7084 1.60371C85.9528 1.60371 87.7584 3.73535 87.7584 6.38496V13.9752L98.3897 1.42441V1.40449ZM1.18969 97.4279C-0.396562 95.5553 -0.396562 92.5272 1.18969 90.6744L11.8209 78.1236H5.40844C3.16406 78.1236 1.35844 75.992 1.35844 73.3424C1.35844 70.6928 3.16406 68.5611 5.40844 68.5611H21.6084C23.8528 68.5611 25.6584 70.6928 25.6584 73.3424V92.4674C25.6584 95.117 23.8528 97.2486 21.6084 97.2486C19.3641 97.2486 17.5584 95.117 17.5584 92.4674V84.8572L6.92719 97.4279C5.34094 99.3006 2.77594 99.3006 1.20656 97.4279H1.18969ZM98.3897 97.4279L87.7584 84.8772V92.4475C87.7584 95.0971 85.9528 97.2287 83.7084 97.2287C81.4641 97.2287 79.6584 95.0971 79.6584 92.4475V73.3225C79.6584 70.6729 81.4641 68.5412 83.7084 68.5412H99.9084C102.153 68.5412 103.958 70.6729 103.958 73.3225C103.958 75.9721 102.153 78.1037 99.9084 78.1037H93.4791L104.11 90.6545C105.697 92.5272 105.697 95.5553 104.11 97.408C102.524 99.2607 99.9591 99.2807 98.3897 97.408V97.4279Z" fill="black"/>
</svg>
