<svg width="108" height="105" viewBox="0 0 108 105" fill="none" xmlns="http://www.w3.org/2000/svg">
    <path d="M11.9983 26.2228C11.9983 20.0183 16.0289 14.9845 20.997 14.9845C25.965 14.9845 29.9956 20.0183 29.9956 26.2228V52.4456H11.9983V26.2228ZM0 26.2228V78.6684C0 93.1612 9.39239 104.891 20.997 104.891C32.6015 104.891 41.9939 93.1612 41.9939 78.6684V36.8992C42.3314 41.3712 43.5312 45.7963 45.7059 49.7297L69.7961 93.5827C76.4514 105.687 89.537 108.637 99.0419 100.162C108.547 91.6862 110.853 74.9926 104.197 62.8879L80.1071 19.035C73.4518 6.9069 60.3475 3.98025 50.8614 12.4558C45.6121 17.1385 42.5563 24.3498 41.9939 31.8888V26.2228C41.9939 11.73 32.6015 0 20.997 0C9.39239 0 0 11.73 0 26.2228ZM55.6044 41.2541C52.6049 35.7988 53.7297 28.3066 57.8354 24.6307C61.8098 21.0953 67.3027 22.2192 70.2086 27.4871L82.7692 50.3384L67.7902 63.4498L55.6044 41.2541ZM92.0491 87.9635C91.8992 88.104 91.7492 88.221 91.5992 88.3381L92.3491 87.6825C92.2554 87.7762 92.1616 87.8698 92.0491 87.9635Z" fill="#FF1313" fill-opacity="0.7"/>
</svg>
