<svg width="109" height="103" viewBox="0 0 109 103" fill="none" xmlns="http://www.w3.org/2000/svg">
    <path d="M109 16.0938V25.75C109 34.6418 84.5966 41.8438 54.5 41.8438C24.4033 41.8438 0 34.6418 0 25.75V16.0938C0 7.20195 24.4033 0 54.5 0C84.5966 0 109 7.20195 109 16.0938ZM95.667 43.1916C100.728 41.7029 105.375 39.7918 109 37.4381V57.9375C109 66.8293 84.5966 74.0312 54.5 74.0312C24.4033 74.0312 0 66.8293 0 57.9375V37.4381C3.62522 39.8119 8.27232 41.7029 13.333 43.1916C24.2574 46.4104 38.8069 48.2812 54.5 48.2812C70.1931 48.2812 84.7426 46.4104 95.667 43.1916ZM0 69.6256C3.62522 71.9994 8.27232 73.8904 13.333 75.3791C24.2574 78.5979 38.8069 80.4688 54.5 80.4688C70.1931 80.4688 84.7426 78.5979 95.667 75.3791C100.728 73.8904 105.375 71.9793 109 69.6256V86.9062C109 95.798 84.5966 103 54.5 103C24.4033 103 0 95.798 0 86.9062V69.6256Z" fill="#E23D65"/>
</svg>
