<svg width="109" height="104" viewBox="0 0 109 104" fill="none" xmlns="http://www.w3.org/2000/svg">
    <path d="M54.5 0C57.5145 0 59.95 2.90469 59.95 6.5V19.5H81.75C87.762 19.5 92.65 25.3297 92.65 32.5V91C92.65 98.1703 87.762 104 81.75 104H27.25C21.238 104 16.35 98.1703 16.35 91V32.5C16.35 25.3297 21.238 19.5 27.25 19.5H49.05V6.5C49.05 2.90469 51.4855 0 54.5 0ZM35.425 78C33.9262 78 32.7 79.4625 32.7 81.25C32.7 83.0375 33.9262 84.5 35.425 84.5H40.875C42.3737 84.5 43.6 83.0375 43.6 81.25C43.6 79.4625 42.3737 78 40.875 78H35.425ZM51.775 78C50.2762 78 49.05 79.4625 49.05 81.25C49.05 83.0375 50.2762 84.5 51.775 84.5H57.225C58.7237 84.5 59.95 83.0375 59.95 81.25C59.95 79.4625 58.7237 78 57.225 78H51.775ZM68.125 78C66.6263 78 65.4 79.4625 65.4 81.25C65.4 83.0375 66.6263 84.5 68.125 84.5H73.575C75.0737 84.5 76.3 83.0375 76.3 81.25C76.3 79.4625 75.0737 78 73.575 78H68.125ZM44.9625 52C44.9625 47.5109 41.9139 43.875 38.15 43.875C34.3861 43.875 31.3375 47.5109 31.3375 52C31.3375 56.4891 34.3861 60.125 38.15 60.125C41.9139 60.125 44.9625 56.4891 44.9625 52ZM70.85 60.125C74.6139 60.125 77.6625 56.4891 77.6625 52C77.6625 47.5109 74.6139 43.875 70.85 43.875C67.0861 43.875 64.0375 47.5109 64.0375 52C64.0375 56.4891 67.0861 60.125 70.85 60.125ZM8.175 45.5H10.9V84.5H8.175C3.66172 84.5 0 80.1328 0 74.75V55.25C0 49.8672 3.66172 45.5 8.175 45.5ZM100.825 45.5C105.338 45.5 109 49.8672 109 55.25V74.75C109 80.1328 105.338 84.5 100.825 84.5H98.1V45.5H100.825Z" fill="#249AEF"/>
</svg>
