<svg width="108" height="105" viewBox="0 0 108 105" fill="none" xmlns="http://www.w3.org/2000/svg">
    <path d="M22.5818 4.48384C23.7273 7.92941 21.8659 11.6416 18.45 12.7901L13.0909 14.5744V39.3702C13.0909 50.2401 21.8864 59.0591 32.7273 59.0591C43.5682 59.0591 52.3636 50.2401 52.3636 39.3702V14.5744L47.025 12.7901C43.5886 11.6416 41.7477 7.92941 42.8932 4.48384C44.0386 1.03828 47.7409 -0.807563 51.1773 0.340959L56.5159 2.12527C61.8545 3.90958 65.4545 8.91385 65.4545 14.5744V39.3702C65.4545 55.2034 54.2864 68.4114 39.4159 71.5083C40.7045 82.973 50.4 91.874 62.1818 91.874C74.8432 91.874 85.0909 81.5989 85.0909 68.9036V54.4035C79.3023 51.8809 75.2727 46.0972 75.2727 39.3702C75.2727 30.3051 82.5955 22.9627 91.6364 22.9627C100.677 22.9627 108 30.3051 108 39.3702C108 46.0972 103.97 51.8809 98.1818 54.4035V68.9036C98.1818 88.8387 82.0636 105 62.1818 105C43.1795 105 27.6341 90.2538 26.2841 71.5493C11.2909 68.5344 0 55.2854 0 39.3702V14.5744C0 8.93436 3.6 3.90958 8.95909 2.12527L14.2977 0.340959C17.7341 -0.807563 21.4364 1.05878 22.5818 4.48384ZM91.6364 45.9332C95.2568 45.9332 98.1818 43.0003 98.1818 39.3702C98.1818 35.74 95.2568 32.8072 91.6364 32.8072C88.0159 32.8072 85.0909 35.74 85.0909 39.3702C85.0909 43.0003 88.0159 45.9332 91.6364 45.9332Z" fill="#26EDC9"/>
</svg>
